# xmcd CD database file
#
# Track frame offsets:
#	150
#	10235
#	24530
#	36623
#	53460
#	69080
#	81124
#	94863
#	107416
#	119895
#	139012
#	148102
#	169414
#	185139
#	204785
#	235555
#	253608
#	275675
#	302301
#	323073
#
# Disc length: 4601 seconds
#
# Revision: 0
# Processed by: cddbd v1.5.2PL0 Copyright (c) Steve Scherf et al.
# Submitted via: CDex 1.70beta2
#
DISCID=1311f714
DTITLE=Jazz Sélection - Jazz à la française
DYEAR=2007
DGENRE=Jazz
TTITLE0=Grappelli - I want to be happy
TTITLE1=Grappelli - Cheek to cheek
TTITLE2=Grappelli - Rain check
TTITLE3=Grappelli - Camélia
TTITLE4=Grappelli - What am I here for
TTITLE5=Grappelli - Tabou
TTITLE6=Grappelli - Flamingo
TTITLE7=Grappelli - Anna
TTITLE8=Grappelli - Un été 42
TTITLE9=Grappelli - Les valseuses
TTITLE10=Grappelli - Valse du passé
TTITLE11=Violons - Une nuit au violon
TTITLE12=Violons - Sniffin'the Blues
TTITLE13=Violons - Satin doll
TTITLE14=Violons - Around midnight
TTITLE15=Violons - Storyboard
TTITLE16=Violons - Irrémédiablement
TTITLE17=Violons - Nuages
TTITLE18=Violons - La Javalseuse
TTITLE19=Violons - Bossa pour Didier
EXTD=YEAR: 2007
EXTT0=
EXTT1=
EXTT2=
EXTT3=
EXTT4=
EXTT5=
EXTT6=
EXTT7=
EXTT8=
EXTT9=
EXTT10=
EXTT11=
EXTT12=
EXTT13=
EXTT14=
EXTT15=
EXTT16=
EXTT17=
EXTT18=
EXTT19=
PLAYORDER=
